<svg width="40" height="40" viewBox="0 0 40 40" fill="none" xmlns="http://www.w3.org/2000/svg">
<rect width="40" height="40" fill="#014D6D"/>
<path fill-rule="evenodd" clip-rule="evenodd" d="M14.0069 25H12.6084L11.0871 27.4833L9.4069 25H8L8.0084 30.9758H9.40683V27.7475L10.603 29.236H11.3996L12.6035 27.4833L12.6084 30.9758H14.0069V25ZM26.2211 25H24.8227L23.3013 27.4833L21.6211 25H20.2142L20.2226 30.9758H21.6211V27.7475L22.8172 29.236H23.6139L24.8178 27.4833L24.8227 30.9758H26.2211V25ZM29.2936 31.248C30.6274 31.248 31.7087 30.1667 31.7087 28.8329C31.7087 27.499 30.6274 26.4177 29.2936 26.4177C27.9598 26.4177 26.8785 27.499 26.8785 28.8329C26.8785 30.1667 27.9598 31.248 29.2936 31.248ZM29.2936 29.9258C29.8972 29.9258 30.3865 29.4365 30.3865 28.8329C30.3865 28.2293 29.8972 27.74 29.2936 27.74C28.69 27.74 28.2007 28.2293 28.2007 28.8329C28.2007 29.4365 28.69 29.9258 29.2936 29.9258ZM19.5257 28.8329C19.5257 30.1667 18.4444 31.248 17.1106 31.248C15.7767 31.248 14.6954 30.1667 14.6954 28.8329C14.6954 27.499 15.7767 26.4177 17.1106 26.4177C18.4444 26.4177 19.5257 27.499 19.5257 28.8329ZM18.2035 28.8329C18.2035 29.4365 17.7142 29.9258 17.1106 29.9258C16.507 29.9258 16.0177 29.4365 16.0177 28.8329C16.0177 28.2293 16.507 27.74 17.1106 27.74C17.7142 27.74 18.2035 28.2293 18.2035 28.8329Z" fill="#FFCB04"/>
<rect opacity="0.9" x="11.5" y="5" width="18" height="18" rx="3" fill="url(#paint0_linear_2369_80045)"/>
<path d="M13.7604 32.9523C13.6054 32.9523 13.5278 33.0224 13.5278 33.1625V33.2245H14.0139V33.5911H13.5278V34.5237H13V33.1814C13 32.7825 13.2277 32.583 13.6829 32.583C13.844 32.583 13.995 32.6037 14.1362 32.645V33.0143C14.011 32.973 13.8857 32.9523 13.7604 32.9523ZM15.1536 33.1787C15.2152 33.1787 15.2729 33.185 15.3265 33.1976V33.6558C15.255 33.6342 15.1814 33.6234 15.1059 33.6234C14.9349 33.6234 14.8076 33.681 14.7241 33.7959V34.5237H14.1963V33.2703L14.7033 33.176V33.4563C14.759 33.3683 14.8265 33.3 14.9061 33.2515C14.9876 33.203 15.0701 33.1787 15.1536 33.1787ZM16.249 34.583C16.0085 34.583 15.8077 34.5174 15.6466 34.3862C15.4856 34.2551 15.4051 34.0924 15.4051 33.8984C15.4051 33.69 15.4876 33.5165 15.6526 33.3782C15.8196 33.238 16.0284 33.1679 16.2789 33.1679C16.5194 33.1679 16.7202 33.2344 16.8813 33.3674C17.0423 33.4986 17.1228 33.6612 17.1228 33.8552C17.1228 34.0619 17.0393 34.2353 16.8723 34.3755C16.7073 34.5138 16.4995 34.583 16.249 34.583ZM16.2789 34.2299C16.3763 34.2299 16.4508 34.2012 16.5025 34.1437C16.5562 34.0844 16.583 34.0026 16.583 33.8984C16.583 33.7798 16.5532 33.6873 16.4936 33.6207C16.4339 33.5525 16.3524 33.5183 16.249 33.5183C16.1516 33.5183 16.0761 33.548 16.0224 33.6073C15.9707 33.6666 15.9449 33.7492 15.9449 33.8552C15.9449 33.9721 15.9747 34.0637 16.0343 34.1302C16.094 34.1967 16.1755 34.2299 16.2789 34.2299ZM19.2041 33.1841C19.3552 33.1841 19.4745 33.2326 19.562 33.3296C19.6495 33.4249 19.6932 33.5543 19.6932 33.7178V34.5237H19.1654V33.8445C19.1654 33.6684 19.1067 33.5803 18.9894 33.5803C18.9079 33.5803 18.8403 33.6118 18.7866 33.6747V33.7178V34.5237H18.2588V33.8445C18.2588 33.6684 18.2002 33.5803 18.0829 33.5803C17.9994 33.5803 17.9318 33.6118 17.8801 33.6747V34.5237H17.3522V33.2703L17.8592 33.176V33.3728C17.9765 33.247 18.1186 33.1841 18.2856 33.1841C18.4785 33.1841 18.6206 33.2632 18.7121 33.4213C18.8294 33.2632 18.9934 33.1841 19.2041 33.1841ZM22.3082 32.7501H22.8003V34.5237H22.2635V33.5291L21.9056 34.0089H21.6253L21.2317 33.5291V34.5237H20.7396V32.7501H21.2347L21.8013 33.4455L22.3082 32.7501ZM23.6969 33.1517H23.0528V32.7501H24.8838V33.1517H24.2427V34.5237H23.6969V33.1517ZM26.5079 32.7501H27V34.5237H26.5497L25.6282 33.5102V34.5237H25.1362V32.7501H25.6252L26.5079 33.7286V32.7501Z" fill="#FFCB04"/>
<path d="M26.4231 5H13.5769C12.4298 5 11.5 5.92789 11.5 7.07251V19.9275C11.5 21.0721 12.4298 22 13.5769 22H26.4231C27.5702 22 28.5 21.0721 28.5 19.9275V7.07251C28.5 5.92789 27.5702 5 26.4231 5Z" fill="url(#paint1_linear_2369_80045)"/>
<path d="M26.4231 5H13.5769C12.4298 5 11.5 5.92789 11.5 7.07251V19.9275C11.5 21.0721 12.4298 22 13.5769 22H26.4231C27.5702 22 28.5 21.0721 28.5 19.9275V7.07251C28.5 5.92789 27.5702 5 26.4231 5Z" fill="url(#paint2_linear_2369_80045)"/>
<path fill-rule="evenodd" clip-rule="evenodd" d="M21.6113 6.37474C21.6113 6.37474 24.5926 9.61906 23.8366 14.4625C22.467 9.99255 20.1735 8.47185 20.1735 8.47185L21.6113 6.37474ZM18.3103 8.33767C21.3619 9.929 24.0281 13.7521 23.3077 18.4808C19.6835 13.9687 14.8175 13.6257 14.8175 13.6257C14.8175 13.6257 17.4446 9.72486 18.3103 8.33767ZM18.9556 13.675C19.8208 13.675 20.5221 12.9736 20.5221 12.1085C20.5221 11.2433 19.8208 10.542 18.9556 10.542C18.0905 10.542 17.3891 11.2433 17.3891 12.1085C17.3891 12.9736 18.0905 13.675 18.9556 13.675ZM28.4956 19.8897H11.5C11.5 21.0552 12.4448 22 13.6104 22H26.3852C27.5507 22 28.4956 21.0552 28.4956 19.8897Z" fill="#FFCB04"/>
<defs>
<linearGradient id="paint0_linear_2369_80045" x1="28.9857" y1="25.5" x2="18.692" y2="13.0066" gradientUnits="userSpaceOnUse">
<stop stop-opacity="0.7"/>
<stop offset="1" stop-opacity="0"/>
</linearGradient>
<linearGradient id="paint1_linear_2369_80045" x1="10.5" y1="4" x2="28.9657" y2="20.5384" gradientUnits="userSpaceOnUse">
<stop offset="0.0715128" stop-color="#02789C"/>
<stop offset="0.400252" stop-color="#00597B"/>
<stop offset="1" stop-color="#003249"/>
</linearGradient>
<linearGradient id="paint2_linear_2369_80045" x1="12.2049" y1="5.84719" x2="28.0063" y2="19.5328" gradientUnits="userSpaceOnUse">
<stop stop-color="#04698D"/>
<stop offset="0.302075" stop-color="#025B7D"/>
<stop offset="1" stop-color="#013E5A"/>
</linearGradient>
</defs>
</svg>
